<?xml version="1.0" encoding="UTF-8"?>
<svg width="111px" height="24px" viewBox="0 0 111 24" version="1.1" xmlns="http://www.w3.org/2000/svg" xmlns:xlink="http://www.w3.org/1999/xlink">
    <!-- Generator: Sketch 46.1 (44463) - http://www.bohemiancoding.com/sketch -->
    <title>logo</title>
    <desc>Created with Sketch.</desc>
    <defs></defs>
    <g id="Design" stroke="none" stroke-width="1" fill="none" fill-rule="evenodd">
        <g id="Projects_list" transform="translate(-132.000000, -28.000000)" fill="#B9192B">
            <g id="Navigation-Bars---Title">
                <g id="main">
                    <g id="logo" transform="translate(132.000000, 28.000000)">
                        <g>
                            <path d="M39.8101703,12.4852068 C39.8101703,10.9431051 39.3909725,9.83869831 38.5529835,9.17198644 C37.7145879,8.50608814 36.524489,8.17252881 34.9830934,8.17252881 C34.0995659,8.17252881 33.2579176,8.26608814 32.4573352,8.45320678 C31.6563462,8.6407322 31.0013242,8.83924068 30.4926758,9.04832542 L31.2562582,11.1151729 C31.4656538,11.0252746 31.7087967,10.9394441 31.9856868,10.8568678 C32.2625769,10.7746983 32.5504451,10.6994441 32.8501044,10.6323254 C33.1493571,10.5648 33.4522692,10.5086644 33.7596538,10.4635119 C34.0662253,10.4187661 34.3618187,10.3963932 34.6464341,10.3963932 C35.3494341,10.3963932 35.9036209,10.5273763 36.3077747,10.7893424 C36.7119286,11.0517153 36.9140055,11.4967322 36.9140055,12.1256136 L36.9140055,12.7549017 C36.0007967,12.7996475 35.1176758,12.8895458 34.2646429,13.0241898 C33.4112033,13.1592407 32.6553462,13.3760542 31.9970714,13.6754441 C31.3379835,13.9756475 30.8106319,14.3832407 30.4142033,14.8998508 C30.0173681,15.416461 29.8189505,16.0868339 29.8189505,16.9101559 C29.8189505,18.1532746 30.2718956,19.1153085 31.1773791,19.7966644 C32.0828626,20.4784271 33.4486099,20.8184949 35.2750275,20.8184949 C36.1878297,20.8184949 37.0599725,20.7322576 37.8906429,20.5605966 C38.7213132,20.388122 39.3612912,20.1822915 39.8101703,19.9426983 L39.8101703,12.4852068 Z M36.9140055,18.3928678 C36.7489286,18.4677153 36.5021264,18.5275119 36.1727857,18.5726644 C35.8434451,18.6174102 35.5141044,18.6397831 35.1851703,18.6397831 C34.3768626,18.6397831 33.7596538,18.4827661 33.3327308,18.1679186 C32.9062143,17.853478 32.6931593,17.412122 32.6931593,16.8426305 C32.6931593,16.3935458 32.8086319,16.0343593 33.0412033,15.7646644 C33.2729615,15.4949695 33.5799396,15.285478 33.9613242,15.1357831 C34.3431154,14.9860881 34.7883352,14.8852068 35.2973901,14.8327322 C35.8060385,14.7802576 36.3447747,14.7391729 36.9140055,14.7090712 L36.9140055,18.3928678 Z M52.4499396,8.44222373 L49.3968297,8.44222373 L49.3968297,18.0332746 C49.2317527,18.1085288 48.9926758,18.1719864 48.6783791,18.2240542 C48.3636758,18.2769356 48.0119725,18.3029695 47.6228626,18.3029695 C46.2607747,18.3029695 45.5801374,17.6663593 45.5801374,16.3935458 L45.5801374,8.44222373 L42.5266209,8.44222373 L42.5266209,16.3260203 C42.5266209,17.9136814 42.9563901,19.0591729 43.8175549,19.7629017 C44.6779066,20.4670373 45.946478,20.8184949 47.6228626,20.8184949 C48.0867857,20.8184949 48.5507088,20.796122 49.0150385,20.7509695 C49.4789615,20.7062237 49.920522,20.6460203 50.3397198,20.5715797 C50.758511,20.4967322 51.1480275,20.4068339 51.5070495,20.3018847 C51.866478,20.1973424 52.1807747,20.0773424 52.4499396,19.9426983 L52.4499396,8.44222373 Z M66.1005,20.5492068 L61.4531374,14.1025627 L65.8085659,8.44222373 L62.2838077,8.44222373 L58.2874011,13.7429695 L58.2426758,13.7429695 L58.2426758,2.91652881 L55.211522,2.91652881 L55.211522,20.5492068 L58.2426758,20.5492068 L58.2426758,14.4393763 L58.2874011,14.4393763 L62.6432363,20.5492068 L66.1005,20.5492068 Z M77.2362802,11.9799864 C76.9967967,11.2087322 76.6450934,10.5420203 76.1811703,9.98066441 C75.7172473,9.41930847 75.1443571,8.97754576 74.4637198,8.65537627 C73.7822692,8.33361356 73.0003901,8.17252881 72.1172692,8.17252881 C71.2337418,8.17252881 70.4522692,8.33361356 69.7712253,8.65537627 C69.0897747,8.97754576 68.5172912,9.41930847 68.0537747,9.98066441 C67.5894451,10.5420203 67.2377418,11.2087322 66.9982582,11.9799864 C66.7587747,12.7512407 66.6392363,13.5859525 66.6392363,14.4845288 C66.6392363,15.3826983 66.7587747,16.221478 66.9982582,17.0000542 C67.2377418,17.7790373 67.5894451,18.4490034 68.0537747,19.0103593 C68.5172912,19.572122 69.0897747,20.0138847 69.7712253,20.3356475 C70.4522692,20.6574102 71.2337418,20.8184949 72.1172692,20.8184949 C73.0003901,20.8184949 73.7822692,20.6574102 74.4637198,20.3356475 C75.1443571,20.0138847 75.7172473,19.572122 76.1811703,19.0103593 C76.6450934,18.4490034 76.9967967,17.7790373 77.2362802,17.0000542 C77.4753571,16.221478 77.5957088,15.3826983 77.5957088,14.4845288 C77.5957088,13.5859525 77.4753571,12.7512407 77.2362802,11.9799864 L77.2362802,11.9799864 Z M73.9359615,17.3031051 C73.5318077,17.9848678 72.9255769,18.3253424 72.1172692,18.3253424 C71.3093681,18.3253424 70.7027308,17.9848678 70.2989835,17.3031051 C69.8944231,16.6221559 69.6927527,15.6747661 69.6927527,14.4617492 C69.6927527,13.2487322 69.8944231,12.2980881 70.2989835,11.6094102 C70.7027308,10.9207322 71.3093681,10.5757831 72.1172692,10.5757831 C72.9255769,10.5757831 73.5318077,10.9207322 73.9359615,11.6094102 C74.3401154,12.2980881 74.5421923,13.2487322 74.5421923,14.4617492 C74.5421923,15.6747661 74.3401154,16.6221559 73.9359615,17.3031051 L73.9359615,17.3031051 Z M90.8193462,20.5492068 L86.1719835,14.1025627 L90.5274121,8.44222373 L87.0026538,8.44222373 L83.0062473,13.7429695 L82.9611154,13.7429695 L82.9611154,2.91652881 L79.9303681,2.91652881 L79.9303681,20.5492068 L82.9611154,20.5492068 L82.9611154,14.4393763 L83.0062473,14.4393763 L87.3616758,20.5492068 L90.8193462,20.5492068 Z M96.364467,18.0670373 C96.2595659,17.8351729 96.1209176,17.6330034 95.9493352,17.4605288 C95.7769396,17.288461 95.5748626,17.1497492 95.3431044,17.0448 C95.1109396,16.9402576 94.8600714,16.8877831 94.5909066,16.8877831 C94.3213352,16.8877831 94.070467,16.9402576 93.8387088,17.0448 C93.606544,17.1497492 93.404467,17.288461 93.232478,17.4605288 C93.0600824,17.6330034 92.9218407,17.8351729 92.8173462,18.0670373 C92.7124451,18.2993085 92.6599945,18.5498847 92.6599945,18.8195797 C92.6599945,19.0888678 92.7124451,19.3398508 92.8173462,19.572122 C92.9218407,19.8043932 93.0600824,20.0065627 93.232478,20.1782237 C93.404467,20.3506983 93.606544,20.4894102 93.8387088,20.5939525 C94.070467,20.6984949 94.3213352,20.7509695 94.5909066,20.7509695 C94.8600714,20.7509695 95.1109396,20.6984949 95.3431044,20.5939525 C95.5748626,20.4894102 95.7769396,20.3506983 95.9493352,20.1782237 C96.1209176,20.0065627 96.2595659,19.8043932 96.364467,19.572122 C96.4689615,19.3398508 96.5214121,19.0888678 96.5214121,18.8195797 C96.5214121,18.5498847 96.4689615,18.2993085 96.364467,18.0670373 L96.364467,18.0670373 Z M99.0581484,20.5492068 L102.111665,20.5492068 L102.111665,2.91652881 L99.0581484,2.91652881 L99.0581484,20.5492068 Z M110.979874,17.853478 C110.874973,17.8986305 110.744456,17.940122 110.587104,17.977139 C110.430159,18.0145627 110.268742,18.0332746 110.104478,18.0332746 C109.714962,18.0332746 109.386027,17.9360542 109.116456,17.7412068 C108.847291,17.5467661 108.712302,17.2022237 108.712302,16.7079864 L108.712302,10.7332068 L110.979874,10.7332068 L110.979874,8.44222373 L108.712302,8.44222373 L108.712302,4.87069831 L105.703918,5.74690169 L105.703918,8.44222373 L104.154797,8.44222373 L104.154797,10.7332068 L105.703918,10.7332068 L105.703918,16.9101559 C105.703918,18.1829695 105.984467,19.1376814 106.545566,19.7742915 C107.107071,20.4109017 107.971489,20.7285966 109.138819,20.7285966 C109.512885,20.7285966 109.868654,20.6948339 110.205313,20.6277153 C110.541973,20.5605966 110.800566,20.4816814 110.979874,20.3917831 L110.979874,17.853478 Z" id="logo_text"></path>
                            <g id="logo_symbol">
                                <path d="M11.2618242,13.8457627 C10.6677912,14.6251525 10.0282198,15.2548475 9.7183956,15.5452881 C9.40857143,15.2548475 8.76940659,14.6251525 8.17496703,13.8457627 C7.32396703,12.7295593 6.87427473,11.7089492 6.87427473,10.8937627 C6.87427473,9.95369492 7.50978022,9.18854237 8.29084615,9.18854237 C8.80478022,9.18854237 9.27968132,9.52576271 9.52932967,10.0688136 L9.7183956,10.4788475 L9.90746154,10.0688136 C10.1575165,9.52576271 10.632011,9.18854237 11.1459451,9.18854237 C11.9274176,9.18854237 12.5629231,9.95369492 12.5629231,10.8937627 C12.5629231,11.7089492 12.1128242,12.7295593 11.2618242,13.8457627 M11.1459451,8.66827119 C10.5885055,8.66827119 10.066033,8.97254237 9.7183956,9.48183051 C9.37075824,8.97254237 8.84869231,8.66827119 8.29084615,8.66827119 C7.27151648,8.66827119 6.44206593,9.66691525 6.44206593,10.8937627 C6.44206593,11.8549831 6.91818681,12.9663051 7.8566044,14.1976271 C8.57912088,15.1450169 9.36506593,15.8784407 9.58869231,16.0806102 L9.7183956,16.1981695 L9.8480989,16.0806102 C10.0717253,15.8784407 10.8576703,15.1450169 11.5801868,14.1976271 C12.519011,12.9663051 12.9947253,11.8549831 12.9947253,10.8937627 C12.9947253,9.66691525 12.1656813,8.66827119 11.1459451,8.66827119" id="Fill-3"></path>
                                <path d="M10.0181363,18.9676475 C7.1727956,18.9676475 4.32338901,16.6339525 4.32338901,11.9999186 C4.32338901,7.27029153 7.1727956,5.03218983 10.0181363,5.03218983 C12.8634769,5.03218983 15.3095429,8.15178305 15.3095429,11.9999186 C15.3095429,15.8480542 12.8634769,18.9676475 10.0181363,18.9676475 M9.60056484,4.61646102 C6.29983956,4.61646102 3.62445495,7.92235932 3.62445495,11.9999186 C3.62445495,16.0778847 6.29983956,19.3833763 9.60056484,19.3833763 C12.9008835,19.3833763 15.5766747,16.0778847 15.5766747,11.9999186 C15.5766747,7.92235932 12.9008835,4.61646102 9.60056484,4.61646102" id="Fill-5"></path>
                                <path d="M19.2991187,12.9423051 C19.3145692,12.6368136 19.3227011,12.3227797 19.3227011,11.9997966 C19.3227011,11.7398644 19.3161956,11.4872542 19.3060308,11.2383051 L20.436767,11.2383051 C20.4514044,11.4901017 20.4615692,11.7435254 20.4615692,11.9997966 C20.4615692,12.3178983 20.4481516,12.6319322 20.4253824,12.9423051 L19.2991187,12.9423051 Z M20.0464374,15.2141695 L19.0226352,15.2141695 C19.1291626,14.6800678 19.2096681,14.1130169 19.2600857,13.5101695 L20.3717121,13.5101695 C20.3021846,14.0959322 20.1919978,14.6650169 20.0464374,15.2141695 L20.0464374,15.2141695 Z M19.182833,17.4860339 L18.3476901,17.4860339 C18.5607451,16.9629153 18.7461516,16.3962712 18.8965912,15.7820339 L19.8805473,15.7820339 C19.6898549,16.3791864 19.4560637,16.9490847 19.182833,17.4860339 L19.182833,17.4860339 Z M17.6150088,19.7578983 L17.0791187,19.7578983 C17.4503385,19.2559322 17.7951297,18.6905085 18.0972286,18.0538983 L18.8721956,18.0538983 C18.5054484,18.6783051 18.0834044,19.2498305 17.6150088,19.7578983 L17.6150088,19.7578983 Z M15.5336571,21.4098305 C15.9065033,21.0937627 16.2748769,20.7345763 16.6265802,20.3257627 L17.0441516,20.3257627 C16.5761626,20.7504407 16.0687341,21.1120678 15.5336571,21.4098305 L15.5336571,21.4098305 Z M9.60023956,22.3222373 C4.98621758,22.3222373 1.24555824,17.7008136 1.24555824,11.9997966 C1.24555824,6.29918644 4.98621758,1.67735593 9.60023956,1.67735593 C13.1892396,1.67735593 16.2488549,4.4739661 17.4316352,8.39857627 L17.4153714,8.39857627 L17.4576571,8.48481356 C17.7792725,9.58230508 17.9553275,10.7656271 17.9553275,11.9997966 C17.9553275,17.7008136 14.2146681,22.3222373 9.60023956,22.3222373 L9.60023956,22.3222373 Z M17.2360637,3.85484746 L16.777833,3.85484746 C16.3773385,3.36671186 15.9536681,2.94488136 15.5230857,2.58122034 C16.1366352,2.92169492 16.7115582,3.3500339 17.2360637,3.85484746 L17.2360637,3.85484746 Z M18.9762835,6.12671186 L18.1813934,6.12671186 C17.8943385,5.49294915 17.565811,4.92711864 17.2100418,4.42271186 L17.7784593,4.42271186 C18.2261187,4.93444068 18.627833,5.5059661 18.9762835,6.12671186 L18.9762835,6.12671186 Z M19.9382835,8.39857627 L18.9396901,8.39857627 C18.7990088,7.7859661 18.623767,7.21850847 18.4204703,6.69457627 L19.2743165,6.69457627 C19.535756,7.23274576 19.7585692,7.80264407 19.9382835,8.39857627 L19.9382835,8.39857627 Z M20.3904154,10.6704407 L19.2743165,10.6704407 C19.2304044,10.0684068 19.156811,9.50135593 19.0571956,8.96644068 L20.0944154,8.96644068 C20.2310308,9.516 20.3294264,10.0858983 20.3904154,10.6704407 L20.3904154,10.6704407 Z M12.1695033,0.241016949 C11.7226571,0.241016949 11.2835363,0.281288136 10.8529538,0.355322034 C10.422778,0.281694915 9.98406374,0.241016949 9.53762418,0.241016949 C4.28118462,0.241016949 0.0200857143,5.50555932 0.0200857143,11.9997966 C0.0200857143,18.4944407 4.28118462,23.7589831 9.53762418,23.7589831 C9.98406374,23.7589831 10.422778,23.7183051 10.8529538,23.644678 C11.2835363,23.7187119 11.7226571,23.7589831 12.1695033,23.7589831 C17.4259429,23.7589831 21.6874484,18.4944407 21.6874484,11.9997966 C21.6874484,5.50555932 17.4259429,0.241016949 12.1695033,0.241016949 L12.1695033,0.241016949 Z" id="Fill-7"></path>
                            </g>
                        </g>
                    </g>
                </g>
            </g>
        </g>
    </g>
</svg>